<svg xmlns="http://www.w3.org/2000/svg" xmlns:xlink="http://www.w3.org/1999/xlink" viewBox="0 0 355.81 97.5"><defs><style>.cls-1{fill:none;}.cls-2{clip-path:url(#clip-path);}.cls-3{opacity:0.05;font-size:235.98px;fill:#002147;font-family:Poppins-Bold, Poppins;font-weight:700;letter-spacing:-0.04em;}.cls-4{fill:#036;}.cls-5{fill:#25a9e0;}.cls-6{fill:#08457e;}</style><clipPath id="clip-path"><rect class="cls-1" x="-462.26" y="-914.58" width="595.28" height="841.89"/></clipPath></defs><title>logo-horizontal</title><g id="Layer_11" data-name="Layer 11"><g class="cls-2"><text class="cls-3" transform="translate(-449.45 -311.02)">Guide<tspan x="0" y="190">lines</tspan></text></g></g><g id="Layer_12" data-name="Layer 12"><path class="cls-4" d="M118.92,45l.21-3.48h6V66.69h-5.88L118.92,63a7.22,7.22,0,0,1-3.42,3.22,11.49,11.49,0,0,1-4.76,1.23A12.72,12.72,0,0,1,101.36,64q-3.6-3.49-3.61-9.94,0-6.29,3.71-9.77a13,13,0,0,1,9.44-3.42A10.26,10.26,0,0,1,115.65,42,7.66,7.66,0,0,1,118.92,45Zm-7.46,1.48A7.16,7.16,0,0,0,104,54.06a7.45,7.45,0,0,0,2.13,5.6,7.32,7.32,0,0,0,5.34,2.07,7.18,7.18,0,0,0,4.73-1.59,6.42,6.42,0,0,0,2.35-3.81,11.59,11.59,0,0,0,0-4.47A6.49,6.49,0,0,0,116.19,48,7.22,7.22,0,0,0,111.46,46.44Z"/><path class="cls-4" d="M151.6,66.69h-6.24V53.5a7.29,7.29,0,0,0-1.59-4.86,5.53,5.53,0,0,0-4.5-1.89,5.91,5.91,0,0,0-4.62,2,7.31,7.31,0,0,0-1.82,5V66.69h-6.19V41.43h5.58l.41,3.42q3.88-3.78,8.28-3.78a10,10,0,0,1,7.65,3.3q3,3.3,3,9.07Z"/><path class="cls-4" d="M153.39,31h6.24v14A7.14,7.14,0,0,1,163.18,42a12,12,0,0,1,4.73-1.09,12.82,12.82,0,0,1,9.28,3.42q3.56,3.43,3.56,9.77,0,6.09-3.66,9.64a12.83,12.83,0,0,1-9.33,3.55q-5.52,0-8.13-4l-.41,3.48h-5.83Zm14,15.75a7.16,7.16,0,0,0-5.17,2.07A7,7,0,0,0,160,54.06a7.12,7.12,0,0,0,2.12,5.37,7.19,7.19,0,0,0,5.19,2,6.92,6.92,0,0,0,5.09-2.07,7.23,7.23,0,0,0,2.07-5.34,7.17,7.17,0,0,0-2-5.35A7,7,0,0,0,167.35,46.7Z"/><path class="cls-4" d="M206.78,56.31H187.09a5.51,5.51,0,0,0,2.3,3.88,8.51,8.51,0,0,0,5.21,1.49,12,12,0,0,0,3.79-.64,7.07,7.07,0,0,0,3-1.72l4,3.94a12,12,0,0,1-4.86,3,17.77,17.77,0,0,1-6,1q-6.44,0-10.15-3.65a13.15,13.15,0,0,1-3.71-9.8,12.93,12.93,0,0,1,3.66-9.51A13.14,13.14,0,0,1,194,40.71q6.5,0,10,4T206.78,56.31Zm-19.59-5.17h13.6a5.06,5.06,0,0,0-2-3.65,7.49,7.49,0,0,0-4.5-1.26,7.92,7.92,0,0,0-4.5,1.26A6.11,6.11,0,0,0,187.19,51.14Z"/><path class="cls-4" d="M208,41.48h5.78l.46,2.91a6.75,6.75,0,0,1,3.07-2.86,10.48,10.48,0,0,1,4-.72,8.79,8.79,0,0,1,6.49,2.41L225,48.64a6.8,6.8,0,0,0-4.5-1.64,6.59,6.59,0,0,0-4.5,1.56,6.08,6.08,0,0,0-1.79,4.83v13.3H208Z"/><path class="cls-4" d="M244.05,59.38l4.19,4.09a13.32,13.32,0,0,1-9.71,4A13.76,13.76,0,0,1,228.94,64q-3.81-3.45-3.81-9.89c0-4.3,1.27-7.59,3.81-9.9a13.75,13.75,0,0,1,9.59-3.45,12.5,12.5,0,0,1,9.1,3.74l-3.94,4.14a7.3,7.3,0,0,0-5.06-2,7,7,0,0,0-5.21,2.1,7.35,7.35,0,0,0-2,5.37,6.86,6.86,0,0,0,7.16,7.36A7.5,7.5,0,0,0,244.05,59.38Z"/><path class="cls-4" d="M250.34,44.75A12.43,12.43,0,0,1,259.8,41a12.68,12.68,0,0,1,9.54,3.78A13,13,0,0,1,273,54.11a13,13,0,0,1-3.58,9.38,14,14,0,0,1-19.1,0,13.1,13.1,0,0,1-3.55-9.38A13.07,13.07,0,0,1,250.34,44.75Zm9.51,1.89a6.19,6.19,0,0,0-5,2.2A8,8,0,0,0,253,54.11a7.91,7.91,0,0,0,1.81,5.24,6.94,6.94,0,0,0,10.08,0,8.28,8.28,0,0,0-.1-10.46A6.2,6.2,0,0,0,259.85,46.64Z"/><path class="cls-4" d="M293.65,31h6.24V66.69h-5.83l-.41-3.48q-2.61,4-8.13,4a12.83,12.83,0,0,1-9.33-3.55q-3.66-3.56-3.66-9.64,0-6.35,3.56-9.77a12.82,12.82,0,0,1,9.28-3.42A12,12,0,0,1,290.1,42a7.14,7.14,0,0,1,3.55,2.94ZM285.93,46.7a7,7,0,0,0-5.11,2,7.17,7.17,0,0,0-2.05,5.35,7.23,7.23,0,0,0,2.07,5.34,6.92,6.92,0,0,0,5.09,2.07,7.21,7.21,0,0,0,5.19-2,7.12,7.12,0,0,0,2.12-5.37,7,7,0,0,0-2.15-5.29A7.12,7.12,0,0,0,285.93,46.7Z"/><path class="cls-4" d="M327.3,56.31H307.61a5.54,5.54,0,0,0,2.3,3.88,8.53,8.53,0,0,0,5.22,1.49,12,12,0,0,0,3.78-.64,7,7,0,0,0,3-1.72l4,3.94a12.08,12.08,0,0,1-4.86,3,17.82,17.82,0,0,1-6,1q-6.45,0-10.16-3.65t-3.7-9.8a13,13,0,0,1,3.65-9.51,13.14,13.14,0,0,1,9.74-3.68q6.49,0,10,4C326.86,47.4,327.77,51.26,327.3,56.31Zm-19.59-5.17h13.6a5,5,0,0,0-2-3.65,7.49,7.49,0,0,0-4.5-1.26,7.92,7.92,0,0,0-4.5,1.26A6.2,6.2,0,0,0,307.71,51.14Z"/><path class="cls-4" d="M94.07,48.18l3.48-4.09a13.21,13.21,0,0,0-6.49-3l-4.94,5a11,11,0,0,1,1.71-.12A8.76,8.76,0,0,1,94.07,48.18Z"/><path class="cls-4" d="M98,55.9a6.69,6.69,0,0,0-1.72-2.28,8.34,8.34,0,0,0-2.55-1.38,16.62,16.62,0,0,0-2.84-.74c-.87-.13-1.87-.24-3-.31-2.82-.18-4.36-.94-4.65-2.28L78.9,53.35a6.47,6.47,0,0,0,1.65,1.25,15.41,15.41,0,0,0,3.29,1.27,21.25,21.25,0,0,0,3.69.59,10,10,0,0,1,3.86.77,2,2,0,0,1,1.15,1.89,2.55,2.55,0,0,1-1.36,2.2,5.49,5.49,0,0,1-3.19.82,14.14,14.14,0,0,1-4.81-1.08,10.14,10.14,0,0,1-3.89-2.45l-3.06,4.45a13.3,13.3,0,0,0,5.37,3.58,20.23,20.23,0,0,0,6.29.92q5.16,0,8-2.38a7.4,7.4,0,0,0,2.84-5.91A7.82,7.82,0,0,0,98,55.9Z"/><g id="Group_211" data-name="Group 211"><circle id="Ellipse_44" data-name="Ellipse 44" class="cls-5" cx="74.81" cy="46.85" r="2.7"/><path id="Path_109" data-name="Path 109" class="cls-5" d="M58.79,44.15H69.11a2.7,2.7,0,0,1,2.7,2.7h0a2.7,2.7,0,0,1-2.7,2.7H58.79a2.7,2.7,0,0,1-2.7-2.7h0a2.7,2.7,0,0,1,2.7-2.7Z"/><circle id="Ellipse_45" data-name="Ellipse 45" class="cls-6" cx="56.12" cy="54.05" r="2.7"/><path id="Path_110" data-name="Path 110" class="cls-6" d="M40.06,51.36H50.37a2.69,2.69,0,0,1,2.71,2.69h0a2.7,2.7,0,0,1-2.7,2.7H40.06a2.7,2.7,0,0,1-2.7-2.7h0A2.7,2.7,0,0,1,40.06,51.36Z"/><circle id="Ellipse_46" data-name="Ellipse 46" class="cls-6" cx="61.87" cy="54.01" r="2.7"/><circle id="Ellipse_47" data-name="Ellipse 47" class="cls-6" cx="67.62" cy="54.05" r="2.7"/><circle id="Ellipse_48" data-name="Ellipse 48" class="cls-5" cx="31.1" cy="61.22" r="2.7"/><circle id="Ellipse_49" data-name="Ellipse 49" class="cls-6" cx="60.3" cy="61.22" r="2.7"/><path id="Path_111" data-name="Path 111" class="cls-6" d="M44.28,58.52H54.61a2.7,2.7,0,0,1,2.7,2.7h0a2.7,2.7,0,0,1-2.7,2.7H44.28a2.7,2.7,0,0,1-2.7-2.7h0A2.7,2.7,0,0,1,44.28,58.52Z"/><circle id="Ellipse_50" data-name="Ellipse 50" class="cls-6" cx="38.58" cy="61.22" r="2.7"/><circle id="Ellipse_51" data-name="Ellipse 51" class="cls-6" cx="67.27" cy="39.66" r="2.7"/><path id="Path_112" data-name="Path 112" class="cls-6" d="M83.3,42.36H73a2.7,2.7,0,0,1-2.7-2.7h0A2.7,2.7,0,0,1,73,37H83.3A2.7,2.7,0,0,1,86,39.65h0a2.7,2.7,0,0,1-2.7,2.7Z"/><circle id="Ellipse_52" data-name="Ellipse 52" class="cls-5" cx="48.39" cy="39.68" r="2.7"/><circle id="Ellipse_53" data-name="Ellipse 53" class="cls-5" cx="54.14" cy="39.64" r="2.7"/><circle id="Ellipse_54" data-name="Ellipse 54" class="cls-5" cx="59.89" cy="39.68" r="2.7"/><path id="Path_122" data-name="Path 122" class="cls-5" d="M99.17,33.4,60.06,72.52a2,2,0,0,1-2.83,0h0l-1.11-1.1a2,2,0,0,1,0-2.84h0L95.23,29.46a2,2,0,0,1,2.83,0h0l1.1,1.11a2,2,0,0,1,0,2.83Z"/></g></g></svg>